<mxfile host="Electron" modified="2023-12-19T02:47:06.553Z" agent="Mozilla/5.0 (Windows NT 10.0; Win64; x64) AppleWebKit/537.36 (KHTML, like Gecko) draw.io/22.1.2 Chrome/114.0.5735.289 Electron/25.9.4 Safari/537.36" etag="rsbz0rJlOttzya1tvJHj" version="22.1.2" type="device">
  <diagram name="Page-1" id="cKss6cqiqlV2aejtFmA0">
    <mxGraphModel dx="1036" dy="649" grid="1" gridSize="10" guides="1" tooltips="1" connect="1" arrows="1" fold="1" page="1" pageScale="1" pageWidth="850" pageHeight="1100" math="0" shadow="0">
      <root>
        <mxCell id="0" />
        <mxCell id="1" parent="0" />
        <mxCell id="u9-T4Igth0gVkZ0g4P_p-1" value="Verilmiş N ədədinin rəqəmlərinin cəmini tapan alqoritm. (ədəd 3 və ya daha cox rəqəmdən ibarət ola bilər)" style="whiteSpace=wrap;html=1;aspect=fixed;" vertex="1" parent="1">
          <mxGeometry x="80" y="40" width="160" height="160" as="geometry" />
        </mxCell>
        <mxCell id="u9-T4Igth0gVkZ0g4P_p-4" value="" style="edgeStyle=orthogonalEdgeStyle;rounded=0;orthogonalLoop=1;jettySize=auto;html=1;" edge="1" parent="1" source="u9-T4Igth0gVkZ0g4P_p-2" target="u9-T4Igth0gVkZ0g4P_p-3">
          <mxGeometry relative="1" as="geometry" />
        </mxCell>
        <mxCell id="u9-T4Igth0gVkZ0g4P_p-2" value="START" style="ellipse;whiteSpace=wrap;html=1;" vertex="1" parent="1">
          <mxGeometry x="365" y="50" width="120" height="80" as="geometry" />
        </mxCell>
        <mxCell id="u9-T4Igth0gVkZ0g4P_p-6" value="" style="edgeStyle=orthogonalEdgeStyle;rounded=0;orthogonalLoop=1;jettySize=auto;html=1;" edge="1" parent="1" source="u9-T4Igth0gVkZ0g4P_p-3" target="u9-T4Igth0gVkZ0g4P_p-5">
          <mxGeometry relative="1" as="geometry" />
        </mxCell>
        <mxCell id="u9-T4Igth0gVkZ0g4P_p-3" value="N" style="shape=parallelogram;perimeter=parallelogramPerimeter;whiteSpace=wrap;html=1;fixedSize=1;" vertex="1" parent="1">
          <mxGeometry x="365" y="180" width="120" height="60" as="geometry" />
        </mxCell>
        <mxCell id="u9-T4Igth0gVkZ0g4P_p-8" value="" style="edgeStyle=orthogonalEdgeStyle;rounded=0;orthogonalLoop=1;jettySize=auto;html=1;" edge="1" parent="1" source="u9-T4Igth0gVkZ0g4P_p-5" target="u9-T4Igth0gVkZ0g4P_p-7">
          <mxGeometry relative="1" as="geometry" />
        </mxCell>
        <mxCell id="u9-T4Igth0gVkZ0g4P_p-5" value="lastDigit = 0&lt;br&gt;sum = 0" style="whiteSpace=wrap;html=1;" vertex="1" parent="1">
          <mxGeometry x="365" y="290" width="120" height="60" as="geometry" />
        </mxCell>
        <mxCell id="u9-T4Igth0gVkZ0g4P_p-10" value="TRUE" style="edgeStyle=orthogonalEdgeStyle;rounded=0;orthogonalLoop=1;jettySize=auto;html=1;" edge="1" parent="1" source="u9-T4Igth0gVkZ0g4P_p-7" target="u9-T4Igth0gVkZ0g4P_p-9">
          <mxGeometry relative="1" as="geometry" />
        </mxCell>
        <mxCell id="u9-T4Igth0gVkZ0g4P_p-13" value="FALSE" style="edgeStyle=orthogonalEdgeStyle;rounded=0;orthogonalLoop=1;jettySize=auto;html=1;" edge="1" parent="1" source="u9-T4Igth0gVkZ0g4P_p-7" target="u9-T4Igth0gVkZ0g4P_p-12">
          <mxGeometry relative="1" as="geometry" />
        </mxCell>
        <mxCell id="u9-T4Igth0gVkZ0g4P_p-7" value="N != 0" style="rhombus;whiteSpace=wrap;html=1;" vertex="1" parent="1">
          <mxGeometry x="353" y="420" width="145" height="80" as="geometry" />
        </mxCell>
        <mxCell id="u9-T4Igth0gVkZ0g4P_p-9" value="lastDigit = N % 10&lt;br&gt;sum += lastDigit&lt;br&gt;N = (N - lastDigit) / 10" style="whiteSpace=wrap;html=1;" vertex="1" parent="1">
          <mxGeometry x="348" y="560" width="154.5" height="70" as="geometry" />
        </mxCell>
        <mxCell id="u9-T4Igth0gVkZ0g4P_p-15" value="" style="edgeStyle=orthogonalEdgeStyle;rounded=0;orthogonalLoop=1;jettySize=auto;html=1;" edge="1" parent="1" source="u9-T4Igth0gVkZ0g4P_p-12" target="u9-T4Igth0gVkZ0g4P_p-14">
          <mxGeometry relative="1" as="geometry" />
        </mxCell>
        <mxCell id="u9-T4Igth0gVkZ0g4P_p-12" value="sum" style="shape=document;whiteSpace=wrap;html=1;boundedLbl=1;" vertex="1" parent="1">
          <mxGeometry x="140.5" y="420" width="120" height="80" as="geometry" />
        </mxCell>
        <mxCell id="u9-T4Igth0gVkZ0g4P_p-14" value="END" style="ellipse;whiteSpace=wrap;html=1;" vertex="1" parent="1">
          <mxGeometry x="140.5" y="560" width="120" height="80" as="geometry" />
        </mxCell>
      </root>
    </mxGraphModel>
  </diagram>
</mxfile>
